<?xml version="1.0" encoding="UTF-8"?>
<COLLADA xmlns="http://www.collada.org/2005/11/COLLADASchema" version="1.4.1">
    <asset>
        <contributor>
            <author>VCGLab</author>
            <authoring_tool>VCGLib | MeshLab</authoring_tool>
        </contributor>
        <created>Sun May 11 16:41:12 2025 GMT</created>
        <modified>Sun May 11 16:41:12 2025 GMT</modified>
        <up_axis>Y_UP</up_axis>
    </asset>
    <library_geometries>
        <geometry id="shape0-lib" name="shape0">
            <mesh>
                <source id="shape0-lib-positions" name="position">
                    <float_array id="shape0-lib-positions-array" count="504">2.00344 2.00023 -3 -1.99656 2.00023 -3 2.00344 -1.99977 -3 -1.99656 -1.99977 -3 -1.99656 -1.99977 -227.5 2.00344 -1.99977 -227.5 2.00344 2.00023 -227.5 -1.99656 2.00023 -227.5 6.24414 32.9814 -3 11.0738 31.6873 -3 6.26661 33.0653 -2.9924 11.0962 31.7712 -2.9924 6.2884 33.1466 -2.96983 11.118 31.8525 -2.96983 6.30884 33.2229 -2.933 11.1385 31.9288 -2.933 6.32732 33.2919 -2.88301 11.157 31.9978 -2.88301 6.34327 33.3514 -2.8214 11.1729 32.0573 -2.8214 6.35621 33.3997 -2.75 11.1858 32.1056 -2.75 6.36574 33.4353 -2.67101 11.1954 32.1412 -2.67101 6.37158 33.4571 -2.58682 11.2012 32.163 -2.58682 6.37355 33.4644 -2.49998 11.2032 32.1703 -2.49998 11.2032 32.1703 1.00002 6.37355 33.4644 1.00002 6.92858 35.5358 1.00002 11.7582 34.2417 1.00002 12.017 35.2076 -5.99998 4.89951 8.64468 -11 7.1874 36.5017 -5.99998 0.0698776 9.93877 -11 12.017 35.2076 0 7.1874 36.5017 0 0.00696468 9.70398 -3 0.00696468 9.70398 -11 -11.0737 31.7391 -3 -6.24408 33.0332 -3 -11.0962 31.823 -2.9924 -6.26655 33.1171 -2.9924 -11.118 31.9043 -2.96983 -6.28834 33.1984 -2.96983 -11.1384 31.9806 -2.933 -6.30878 33.2747 -2.933 -11.1569 32.0495 -2.88301 -6.32726 33.3436 -2.88301 -11.1728 32.1091 -2.8214 -6.34321 33.4032 -2.8214 -11.1858 32.1574 -2.75 -6.35615 33.4515 -2.75 -11.1953 32.1929 -2.67101 -6.36569 33.487 -2.67101 -11.2012 32.2147 -2.58682 -6.37152 33.5088 -2.58682 -11.2031 32.2221 -2.49998 -6.37349 33.5162 -2.49998 -6.37349 33.5162 1.00002 -11.2031 32.2221 1.00002 -7.18734 36.5535 -5.99998 -7.18734 36.5535 0 -6.92852 35.5876 1.00002 -0.0698185 9.99054 -11 -11.7582 34.2935 1.00002 -12.017 35.2594 -5.99998 -4.89945 8.69644 -11 -12.017 35.2594 0 -4.08583 5.65998 -3 -4.08583 5.65998 -11 -3.22861 7.14472 -3 4.09752 5.65163 -3 3.23549 7.14472 -3 4.09752 5.65163 -11 -2.01656 -2.01977 -11 -2.01656 2.02023 -11 -2.01656 -2.01977 -4.99998 -2.01656 2.02023 -4.99998 2.02344 -2.01977 -11 2.02344 -2.01977 -4.99998 2.02344 2.02023 -11 2.02344 2.02023 -4.99998 1.50344 4.14472 0 -1.49656 4.14472 0 2.20344 2.93228 0 -2.19656 2.93228 0 2.20344 -2.93182 0 -2.19656 -2.93182 0 1.50344 -4.14426 0 -1.49656 -4.14426 0 3.23549 -7.14425 -3 -3.22861 -7.14425 -3 5.20344 -3.73567 -11 5.20344 3.73613 -11 5.20344 -3.73567 -3 5.20344 3.73613 -3 -5.19656 3.73613 -11 -5.19656 -3.73567 -11 -5.19656 3.73613 -3 -5.19656 -3.73567 -3 4.1138 -5.62296 -11 4.1138 -5.62296 -3 -4.10211 -5.63131 -3 -11.0967 -31.7356 -3 11.0968 -31.6838 -3 -6.26711 -33.0297 -3 0.00696468 -9.61454 -3 6.26717 -32.9779 -3 6.3663 -33.3479 -2.8214 7.21043 -36.4982 -5.99998 6.37924 -33.3962 -2.75 6.38877 -33.4318 -2.67101 6.35035 -33.2884 -2.88301 6.33187 -33.2194 -2.933 6.31143 -33.1431 -2.96983 6.28964 -33.0618 -2.9924 0.092905 -9.93528 -11 0.00696468 -9.61454 -11 6.95161 -35.5323 1.00002 6.39658 -33.4609 1.00002 7.21043 -36.4982 0 6.39658 -33.4609 -2.49998 6.39461 -33.4536 -2.58682 11.2262 -32.1668 1.00002 11.7812 -34.2382 1.00002 12.0401 -35.2041 -5.99998 4.92253 -8.64118 -11 12.0401 -35.2041 0 11.2262 -32.1668 -2.49998 11.1193 -31.7677 -2.9924 11.1411 -31.849 -2.96983 11.1615 -31.9253 -2.933 11.18 -31.9943 -2.88301 11.1959 -32.0538 -2.8214 11.2089 -32.1021 -2.75 11.2184 -32.1377 -2.67101 11.2242 -32.1595 -2.58682 -4.10211 -5.63131 -11 -0.0928469 -9.98704 -11 -4.92248 -8.69295 -11 -11.2088 -32.1539 -2.75 -11.1959 -32.1056 -2.8214 -12.04 -35.2559 -5.99998 -11.2183 -32.1894 -2.67101 -11.1799 -32.046 -2.88301 -11.1614 -31.9771 -2.933 -11.141 -31.9008 -2.96983 -11.7812 -34.29 1.00002 -11.2261 -32.2186 1.00002 -12.04 -35.2559 0 -11.2261 -32.2186 -2.49998 -11.2242 -32.2112 -2.58682 -11.1192 -31.8195 -2.9924 -6.39652 -33.5127 1.00002 -6.95155 -35.5841 1.00002 -7.21037 -36.55 -5.99998 -7.21037 -36.55 0 -6.39652 -33.5127 -2.49998 -6.28958 -33.1136 -2.9924 -6.31137 -33.1949 -2.96983 -6.33181 -33.2712 -2.933 -6.35029 -33.3401 -2.88301 -6.36624 -33.3997 -2.8214 -6.37918 -33.448 -2.75 -6.38871 -33.4835 -2.67101 -6.39455 -33.5053 -2.58682</float_array>
                    <technique_common>
                        <accessor count="168" source="#shape0-lib-positions-array" stride="3">
                            <param name="X" type="float"/>
                            <param name="Y" type="float"/>
                            <param name="Z" type="float"/>
                        </accessor>
                    </technique_common>
                </source>
                <source id="shape0-lib-normals" name="normal">
                    <float_array id="shape0-lib-normals-array" count="984">0 0 1 0 0 1 0 -1 0 0 -1 0 1 0 0 1 0 0 0 1 0 0 1 0 -1 0 0 -1 0 0 0 0 -1 0 0 -1 -0.0225646 -0.0842121 0.996192 -0.0225646 -0.0842121 0.996192 -0.0670183 -0.250115 0.965894 -0.0670179 -0.250114 0.965894 -0.109381 -0.408214 0.90631 -0.109381 -0.408216 0.906309 -0.148456 -0.554045 0.819143 -0.148445 -0.554007 0.819171 -0.182987 -0.682921 0.707202 -0.182987 -0.682918 0.707205 -0.212014 -0.79125 0.573562 -0.212015 -0.791252 0.573559 -0.234575 -0.875447 0.422572 -0.234574 -0.875447 0.422573 -0.249998 -0.933009 0.258835 -0.249998 -0.933009 0.258834 -0.257833 -0.96225 0.0871619 -0.257833 -0.962249 0.087168 -0.258818 -0.965926 0 -0.258818 -0.965926 0 0 0 1 0 0 1 0.0462992 0.172791 -0.98387 0.046299 0.172791 -0.98387 0.25882 0.965926 0 0.25882 0.965926 0 0.183014 0.683018 0.707102 0.183014 0.683017 0.707102 -0.965927 0.258814 -5.53278e-06 -0.965927 0.258816 -3.57477e-06 -0.965926 0.258818 0 -0.965926 0.258819 6.59568e-07 -0.965926 0.258819 9.6999e-09 -0.965926 0.258819 0 -0.965922 0.258834 1.78966e-05 -0.965931 0.258802 -1.86238e-05 -0.965924 0.258827 9.12888e-06 -0.965926 0.258819 0 -0.965926 0.258819 -1.26717e-07 -0.965921 0.258838 -2.43584e-05 -0.965926 0.258818 0 -0.965926 0.258818 -7.34511e-07 -0.965925 0.258822 3.53184e-06 0.0225664 -0.0842193 0.996192 0.0225664 -0.0842194 0.996192 0.0670176 -0.250114 0.965894 0.0670127 -0.250094 0.9659 0.109381 -0.408216 0.906309 0.109381 -0.408214 0.906309 0.148446 -0.554007 0.81917 0.148446 -0.554007 0.81917 0.182999 -0.682959 0.707162 0.182998 -0.682958 0.707163 0.212015 -0.79125 0.573561 0.212015 -0.791251 0.573561 0.234567 -0.875416 0.422642 0.234567 -0.875415 0.422643 0.250005 -0.933029 0.258756 0.250001 -0.933009 0.258832 0.257836 -0.962249 0.0871663 0.257836 -0.962256 0.0870822 0.25882 -0.965926 0 0.25882 -0.965926 0 0.965922 0.258835 1.4542e-05 0.965926 0.258819 0 0.965926 0.258819 0 0.965926 0.25882 8.3382e-07 0.965927 0.258814 -5.26674e-06 0.965928 0.25881 -9.57725e-06 0.965926 0.25882 1.21719e-06 0.965924 0.258828 8.83366e-06 0.965927 0.258816 -4.29419e-06 0.965927 0.258815 -5.19282e-06 0.965929 0.258806 -1.52364e-05 0.965923 0.25883 1.32384e-05 0.965926 0.258819 -9.46838e-08 0.965926 0.258819 4.31879e-08 0.965926 0.258818 0 0 0 1 0 0 1 -0.0462989 0.172791 -0.98387 -0.046299 0.172791 -0.98387 -0.258818 0.965926 0 -0.258818 0.965926 0 -0.183013 0.683018 0.707102 -0.183013 0.683018 0.707102 -0.965923 -0.258829 -1.27471e-05 -0.965923 -0.258829 -1.14392e-05 -0.965929 -0.258807 1.2982e-05 -0.965926 -0.258819 0 -0.965926 -0.258819 1.26717e-07 -0.965925 -0.258824 6.51026e-06 -0.965926 -0.258818 0 -0.965921 -0.258837 -1.79615e-05 -0.965929 -0.258806 1.29842e-05 -0.965926 -0.258819 3.76775e-07 -0.965926 -0.258819 -8.09166e-09 -0.965926 -0.258819 0 -0.965926 -0.258819 8.62669e-08 -0.965923 -0.258828 -1.02136e-05 -0.965925 -0.258823 -4.26015e-06 0 0 1 0 0 1 0 0 1 0 0 1 0 0 1 0 0 1 0 0 1 0.965927 -0.258813 6.08597e-06 0.965925 -0.258822 -3.33729e-06 0.965927 -0.258816 3.38869e-06 0.965926 -0.25882 -6.13454e-07 0.96593 -0.258803 1.68767e-05 0.965923 -0.258832 -1.58853e-05 0.965927 -0.258814 5.79131e-06 0.965926 -0.258819 -4.73419e-07 0.965926 -0.258819 4.42267e-08 0.965926 -0.258819 0 0.965926 -0.25882 -2.44587e-06 0.965926 -0.258819 0 0.965926 -0.258819 0 0.965926 -0.258818 7.95645e-07 0.965926 -0.258818 6.96426e-07 1 0 0 1 0 0 0 1 0 0 1 0 0 -1 0 0 -1 0 -1 0 0 -1 0 0 0 0 -1 0 0 -1 0 0 1 0 0 1 0 0 1 0 0 1 0 0 1 0 0 1 0 -0.707107 0.707107 0 -0.707107 0.707107 1 0 0 1 0 0 0.707107 0 0.707107 0.707107 0 0.707107 0 0.707107 0.707107 0 0.707107 0.707107 -1 0 0 -1 0 0 -0.707107 0 0.707107 -0.707107 0 0.707107 0.866025 -0.500001 0 0.866025 -0.500001 0 0.612372 -0.353554 0.707107 0.612373 -0.353553 0.707107 0.612373 -0.353553 0.707107 -0.612373 -0.353554 0.707107 -0.612373 -0.353553 0.707107 -0.612372 -0.353554 0.707107 0.612373 0.353553 0.707107 0.612373 0.353553 0.707107 0.612372 0.353553 0.707107 0.866025 0.5 0 0.866025 0.5 0 -0.612372 0.353553 0.707107 -0.612373 0.353553 0.707107 -0.612372 0.353553 0.707107 -0.866025 0.5 0 -0.866025 0.5 0 0 0 1 0 0 1 0 0 1 0 0 1 0 0 1 0 0 1 0 0 1 -0.965924 -0.258826 7.57886e-06 -0.965926 -0.258817 -1.90556e-06 -0.965928 -0.258809 -1.05795e-05 -0.965925 -0.258822 4.29422e-06 -0.965924 -0.258826 8.43856e-06 -0.965925 -0.258824 6.05456e-06 -0.965929 -0.258807 -1.57201e-05 -0.965926 -0.258819 3.78735e-08 -0.965926 -0.258819 6.89995e-08 -0.965926 -0.258817 0 -0.965926 -0.258819 -7.50437e-07 -0.965926 -0.258819 0 -0.965926 -0.258819 0 -0.965924 -0.258825 6.36534e-06 -0.965926 -0.258819 0 0 0 1 0 0 1 0.0462991 -0.172791 -0.98387 0.0462991 -0.172791 -0.98387 0.258819 -0.965926 0 0.258819 -0.965926 0 0.183014 -0.683018 0.707102 0.183014 -0.683018 0.707102 -0.258819 0.965926 0 -0.258819 0.965926 0 -0.0225656 0.0842161 0.996192 -0.0225658 0.0842166 0.996192 -0.0670154 0.250105 0.965897 -0.0670154 0.250105 0.965897 -0.109385 0.40823 0.906302 -0.109385 0.40823 0.906302 -0.148448 0.554017 0.819163 -0.148448 0.554014 0.819165 -0.182993 0.682938 0.707184 -0.182993 0.682941 0.707181 -0.212014 0.791247 0.573566 -0.212014 0.791246 0.573567 -0.234572 0.875435 0.422598 -0.234573 0.875437 0.422593 -0.249999 0.93301 0.25883 -0.249999 0.933009 0.258832 -0.257835 0.962252 0.0871357 -0.257835 0.962252 0.0871377 0.965926 0.258819 0 0.965926 0.258819 -4.22389e-08 0.965922 0.258832 1.67609e-05 0.965926 0.258819 0 0.965926 0.258819 -2.72043e-07 0.965927 0.258816 2.96807e-06 0.965926 0.258819 5.89123e-07 0.965926 0.258819 -4.04745e-08 0.965926 0.258819 0 0.965924 0.258825 -7.42045e-06 0.965924 0.258825 -6.43437e-06 0.965924 0.258827 -8.43858e-06 0.965929 0.258808 1.23268e-05 0.965925 0.258824 -4.20548e-06 0.965924 0.258827 -7.9117e-06 -0.866025 -0.5 0 -0.866025 -0.5 0 0 0 -1 0 0 -1 0 0 -1 0 0 -1 0 0 -1 0 0 -1 0 0 -1 0 0 -1 0 0 -1 0 0 -1 0 0 -1 0 0 -1 0 0 -1 0 0 -1 0 0 -1 0 0 -1 0 0 -1 0 0 -1 0 0 -1 0 0 -1 0 0 -1 0 0 -1 -0.965927 0.258815 4.95432e-06 -0.965924 0.258826 -6.34021e-06 -0.965925 0.25882 -1.21095e-06 -0.965925 0.258822 -3.68076e-06 -0.965928 0.258812 7.78938e-06 -0.965926 0.258819 1.08396e-06 -0.965926 0.258819 0 -0.965926 0.258819 0 -0.965925 0.258821 -1.59135e-06 -0.965926 0.258818 6.96426e-07 -0.965926 0.25882 -1.16176e-06 -0.965925 0.258822 -3.30949e-06 -0.965926 0.258819 2.08304e-07 -0.965926 0.258819 -3.52884e-08 -0.965926 0.258819 0 0 0 1 0 0 1 -0.0462991 -0.172791 -0.98387 -0.0462991 -0.172791 -0.98387 -0.258819 -0.965926 0 -0.258819 -0.965926 0 -0.183014 -0.683019 0.7071 -0.183014 -0.683019 0.7071 0.258819 0.965926 0 0.258819 0.965926 0 0.0225657 0.0842162 0.996192 0.0225658 0.0842166 0.996192 0.0670156 0.250106 0.965897 0.0670151 0.250104 0.965897 0.109383 0.408223 0.906305 0.109384 0.408225 0.906304 0.148448 0.554014 0.819165 0.148448 0.554014 0.819165 0.182993 0.682939 0.707183 0.182993 0.682939 0.707183 0.212014 0.791247 0.573566 0.212014 0.791247 0.573566 0.234573 0.875437 0.422595 0.234572 0.875436 0.422597 0.249999 0.93301 0.258831 0.249999 0.933008 0.258836 0.257834 0.962252 0.0871399 0.257835 0.962252 0.0871355 0.965925 -0.258821 2.14599e-06 0.965927 -0.258817 -2.85973e-06 0.965927 -0.258814 -4.54378e-06 0.965925 -0.258822 3.60408e-06 0.965926 -0.25882 6.00784e-07 0.965926 -0.258819 0 0.965926 -0.258819 0 0.965926 -0.258819 -1.26717e-07 0.965926 -0.258819 3.66561e-07 0.965926 -0.258819 0 0.965927 -0.258814 -4.56488e-06 0.965925 -0.258821 2.00533e-06 0.965926 -0.258819 5.24551e-08 0.965926 -0.258819 -7.52014e-08 0.965925 -0.258821 0</float_array>
                    <technique_common>
                        <accessor count="328" source="#shape0-lib-normals-array" stride="3">
                            <param name="X" type="float"/>
                            <param name="Y" type="float"/>
                            <param name="Z" type="float"/>
                        </accessor>
                    </technique_common>
                </source>
                <vertices id="shape0-lib-vertices">
                    <input semantic="POSITION" source="#shape0-lib-positions"/>
                </vertices>
                <triangles count="328">
                    <input offset="0" semantic="VERTEX" source="#shape0-lib-vertices"/>
                    <input offset="1" semantic="NORMAL" source="#shape0-lib-normals"/>
                    <p>0 0 1 0 2 0 2 1 1 1 3 1 3 2 4 2 2 2 2 3 4 3 5 3 2 4 5 4 0 4 0 5 5 5 6 5 0 6 6 6 1 6 1 7 6 7 7 7 1 8 7 8 3 8 3 9 7 9 4 9 7 10 6 10 4 10 4 11 6 11 5 11 8 12 9 12 10 12 10 13 9 13 11 13 10 14 11 14 12 14 12 15 11 15 13 15 12 16 13 16 14 16 14 17 13 17 15 17 14 18 15 18 16 18 16 19 15 19 17 19 16 20 17 20 18 20 18 21 17 21 19 21 18 22 19 22 20 22 20 23 19 23 21 23 20 24 21 24 22 24 22 25 21 25 23 25 22 26 23 26 24 26 24 27 23 27 25 27 24 28 25 28 26 28 26 29 25 29 27 29 28 30 29 30 27 30 27 31 29 31 26 31 29 32 28 32 30 32 30 33 28 33 31 33 32 34 33 34 34 34 34 35 33 35 35 35 32 36 34 36 36 36 36 37 34 37 37 37 31 38 36 38 30 38 30 39 36 39 37 39 8 40 10 40 34 40 34 41 10 41 12 41 34 42 12 42 14 42 8 43 34 43 38 43 38 44 34 44 35 44 38 45 35 45 39 45 14 46 16 46 34 46 34 47 16 47 18 47 34 48 18 48 20 48 29 49 30 49 26 49 26 50 30 50 37 50 26 51 37 51 24 51 24 52 37 52 34 52 24 53 34 53 22 53 22 54 34 54 20 54 40 55 41 55 42 55 42 56 41 56 43 56 42 57 43 57 44 57 44 58 43 58 45 58 44 59 45 59 46 59 46 60 45 60 47 60 46 61 47 61 48 61 48 62 47 62 49 62 48 63 49 63 50 63 50 64 49 64 51 64 50 65 51 65 52 65 52 66 51 66 53 66 52 67 53 67 54 67 54 68 53 68 55 68 54 69 55 69 56 69 56 70 55 70 57 70 56 71 57 71 58 71 58 72 57 72 59 72 60 73 61 73 59 73 59 74 61 74 58 74 57 75 62 75 59 75 59 76 62 76 63 76 59 77 63 77 60 77 60 78 63 78 64 78 57 79 55 79 62 79 62 80 55 80 53 80 62 81 53 81 51 81 51 82 49 82 62 82 62 83 49 83 47 83 62 84 47 84 45 84 45 85 43 85 62 85 62 86 43 86 41 86 62 87 41 87 65 87 65 88 41 88 38 88 65 89 38 89 39 89 61 90 60 90 66 90 66 91 60 91 64 91 62 92 65 92 67 92 67 93 65 93 68 93 62 94 67 94 63 94 63 95 67 95 69 95 64 96 63 96 66 96 66 97 63 97 69 97 40 98 42 98 67 98 67 99 42 99 44 99 67 100 44 100 46 100 61 101 66 101 58 101 58 102 66 102 69 102 58 103 69 103 56 103 56 104 69 104 67 104 56 105 67 105 54 105 54 106 67 106 52 106 40 107 67 107 70 107 70 108 67 108 68 108 70 109 68 109 71 109 46 110 48 110 67 110 67 111 48 111 50 111 67 112 50 112 52 112 9 113 8 113 38 113 40 114 70 114 72 114 73 115 9 115 74 115 74 116 9 116 38 116 74 117 38 117 72 117 72 118 38 118 41 118 72 119 41 119 40 119 19 120 32 120 21 120 21 121 32 121 23 121 19 122 17 122 32 122 32 123 17 123 15 123 32 124 15 124 13 124 13 125 11 125 32 125 32 126 11 126 9 126 32 127 9 127 33 127 33 128 9 128 73 128 33 129 73 129 75 129 31 130 28 130 36 130 36 131 28 131 27 131 36 132 27 132 32 132 32 133 27 133 25 133 32 134 25 134 23 134 76 135 77 135 78 135 78 136 77 136 79 136 80 137 76 137 81 137 81 138 76 138 78 138 77 139 82 139 79 139 79 140 82 140 83 140 82 141 80 141 83 141 83 142 80 142 81 142 81 143 78 143 83 143 83 144 78 144 79 144 84 145 85 145 86 145 86 146 85 146 87 146 86 147 87 147 88 147 88 148 87 148 89 148 88 149 89 149 90 149 90 150 89 150 91 150 90 151 91 151 92 151 92 152 91 152 93 152 94 153 95 153 96 153 96 154 95 154 97 154 96 155 97 155 88 155 88 156 97 156 86 156 84 157 74 157 85 157 85 158 74 158 72 158 98 159 99 159 100 159 100 160 99 160 101 160 100 161 101 161 87 161 87 162 101 162 89 162 94 163 96 163 102 163 102 164 96 164 103 164 96 165 88 165 103 165 103 166 88 166 90 166 103 167 90 167 92 167 93 168 91 168 104 168 104 169 91 169 89 169 104 170 89 170 101 170 74 171 84 171 73 171 73 172 84 172 86 172 73 173 86 173 97 173 97 174 95 174 73 174 73 175 95 175 75 175 100 176 87 176 70 176 70 177 87 177 85 177 70 178 85 178 72 178 98 179 100 179 71 179 71 180 100 180 70 180 93 181 104 181 105 181 106 182 103 182 92 182 105 183 107 183 93 183 93 184 107 184 108 184 93 185 108 185 92 185 92 186 108 186 109 186 92 187 109 187 106 187 110 188 111 188 112 188 112 189 111 189 113 189 110 190 114 190 111 190 111 191 114 191 115 191 111 192 115 192 116 192 116 193 117 193 111 193 111 194 117 194 109 194 111 195 109 195 118 195 118 196 109 196 108 196 118 197 108 197 119 197 120 198 121 198 122 198 122 199 121 199 123 199 122 200 123 200 111 200 111 201 123 201 124 201 111 202 124 202 113 202 125 203 121 203 126 203 126 204 121 204 120 204 111 205 118 205 127 205 127 206 118 206 128 206 111 207 127 207 122 207 122 208 127 208 129 208 120 209 122 209 126 209 126 210 122 210 129 210 121 211 125 211 123 211 123 212 125 212 130 212 106 213 109 213 131 213 131 214 109 214 117 214 131 215 117 215 132 215 132 216 117 216 116 216 132 217 116 217 133 217 133 218 116 218 115 218 133 219 115 219 134 219 134 220 115 220 114 220 134 221 114 221 135 221 135 222 114 222 110 222 135 223 110 223 136 223 136 224 110 224 112 224 136 225 112 225 137 225 137 226 112 226 113 226 137 227 113 227 138 227 138 228 113 228 124 228 138 229 124 229 130 229 130 230 124 230 123 230 125 231 126 231 130 231 130 232 126 232 129 232 130 233 129 233 138 233 138 234 129 234 127 234 138 235 127 235 137 235 137 236 127 236 136 236 106 237 127 237 103 237 103 238 127 238 128 238 103 239 128 239 102 239 106 240 131 240 127 240 127 241 131 241 132 241 127 242 132 242 133 242 133 243 134 243 127 243 127 244 134 244 135 244 127 245 135 245 136 245 101 246 99 246 104 246 104 247 99 247 139 247 35 248 33 248 39 248 39 249 33 249 75 249 119 250 76 250 80 250 82 251 94 251 80 251 80 252 94 252 102 252 80 253 102 253 119 253 119 254 102 254 128 254 119 255 128 255 118 255 68 256 65 256 71 256 71 257 65 257 39 257 71 258 39 258 77 258 77 259 39 259 75 259 77 260 75 260 82 260 82 261 75 261 95 261 82 262 95 262 94 262 140 263 141 263 119 263 119 264 141 264 139 264 119 265 139 265 76 265 76 266 139 266 99 266 76 267 99 267 77 267 77 268 99 268 98 268 77 269 98 269 71 269 142 270 143 270 144 270 142 271 144 271 145 271 143 272 146 272 144 272 144 273 146 273 147 273 144 274 147 274 148 274 149 275 150 275 151 275 151 276 150 276 152 276 151 277 152 277 144 277 144 278 152 278 153 278 144 279 153 279 145 279 148 280 154 280 144 280 144 281 154 281 105 281 144 282 105 282 141 282 141 283 105 283 104 283 141 284 104 284 139 284 155 285 150 285 156 285 156 286 150 286 149 286 144 287 141 287 157 287 157 288 141 288 140 288 144 289 157 289 151 289 151 290 157 290 158 290 149 291 151 291 156 291 156 292 151 292 158 292 150 293 155 293 152 293 152 294 155 294 159 294 107 295 105 295 160 295 160 296 105 296 154 296 160 297 154 297 161 297 161 298 154 298 148 298 161 299 148 299 162 299 162 300 148 300 147 300 162 301 147 301 163 301 163 302 147 302 146 302 163 303 146 303 164 303 164 304 146 304 143 304 164 305 143 305 165 305 165 306 143 306 142 306 165 307 142 307 166 307 166 308 142 308 145 308 166 309 145 309 167 309 167 310 145 310 153 310 167 311 153 311 159 311 159 312 153 312 152 312 107 313 160 313 157 313 157 314 160 314 161 314 157 315 161 315 162 315 162 316 163 316 157 316 157 317 163 317 164 317 157 318 164 318 165 318 155 319 156 319 159 319 159 320 156 320 158 320 159 321 158 321 167 321 167 322 158 322 157 322 167 323 157 323 166 323 166 324 157 324 165 324 107 325 157 325 108 325 108 326 157 326 140 326 108 327 140 327 119 327</p>
                </triangles>
            </mesh>
        </geometry>
    </library_geometries>
    <library_visual_scenes>
        <visual_scene id="VisualSceneNode" name="VisualScene">
            <node id="node" name="node">
                <instance_geometry url="#shape0-lib"/>
            </node>
        </visual_scene>
    </library_visual_scenes>
    <scene>
        <instance_visual_scene url="#VisualSceneNode"/>
    </scene>
</COLLADA>
